<?xml version="1.0" standalone="no"?>
<!DOCTYPE svg PUBLIC "-//W3C//DTD SVG 20010904//EN"
 "http://www.w3.org/TR/2001/REC-SVG-20010904/DTD/svg10.dtd">
<svg version="1.0" xmlns="http://www.w3.org/2000/svg"
 width="460.000000pt" height="460.000000pt" viewBox="0 0 460.000000 460.000000"
 preserveAspectRatio="xMidYMid meet">
<metadata>
Created by potrace 1.14, written by Peter Selinger 2001-2017
</metadata>
<g transform="translate(0.000000,460.000000) scale(0.100000,-0.100000)"
fill="#000000" stroke="none">
<path d="M2201 3641 c-13 -4 -34 -19 -45 -34 -20 -27 -21 -41 -21 -314 l0
-285 24 -19 c13 -11 28 -19 32 -19 5 0 32 -16 59 -35 27 -19 52 -35 54 -35 5
0 87 -49 269 -159 64 -39 119 -71 122 -71 4 0 68 -39 170 -105 28 -17 77 -47
110 -64 75 -41 92 -56 118 -106 21 -39 22 -51 24 -505 1 -256 2 -477 2 -492
l1 -26 110 60 c76 41 115 68 123 86 17 35 16 1402 -1 1443 -26 64 -48 80 -360
258 -157 89 -268 154 -292 170 -14 10 -45 28 -70 41 -61 33 -209 119 -242 142
-15 10 -30 18 -33 18 -3 0 -22 11 -43 24 -41 28 -75 36 -111 27z"/>
<path d="M1763 2960 c-12 -5 -30 -21 -40 -37 -16 -24 -18 -55 -19 -325 l-1
-298 66 -42 c36 -24 75 -47 86 -54 11 -6 47 -28 80 -49 33 -21 83 -51 110 -65
28 -14 97 -55 153 -91 100 -61 135 -83 212 -125 104 -57 209 -134 231 -170 23
-38 24 -45 29 -317 l5 -278 91 48 c51 26 107 60 125 74 l34 27 2 492 c3 468 2
495 -16 534 -27 57 -47 78 -115 117 -32 19 -72 43 -90 53 -17 11 -49 29 -71
41 -22 11 -88 50 -148 85 -59 36 -129 77 -155 91 -26 14 -76 43 -112 64 -36
21 -77 44 -92 52 -15 8 -30 18 -33 23 -3 4 -38 25 -77 45 -40 21 -97 53 -126
72 -60 38 -96 47 -129 33z"/>
<path d="M1279 2239 l-29 -31 0 -257 c0 -248 1 -258 24 -306 25 -54 66 -97
106 -114 14 -6 57 -31 95 -56 39 -24 102 -63 140 -86 39 -23 89 -55 112 -70
23 -16 44 -29 47 -29 7 0 137 -80 157 -97 10 -8 43 -28 75 -44 33 -17 73 -42
91 -55 17 -13 34 -24 37 -24 3 0 45 -25 93 -56 126 -82 192 -83 234 -4 17 31
19 60 19 280 0 140 -5 261 -11 283 -15 55 -59 93 -204 177 -72 41 -137 79
-147 85 -9 5 -52 30 -95 54 -43 24 -94 53 -113 66 -19 12 -64 39 -100 60 -36
20 -81 49 -102 62 -20 14 -42 26 -50 27 -7 1 -33 15 -58 30 -243 152 -269 161
-321 105z"/>
</g>
</svg>
