<?xml version="1.0" standalone="no"?>
<!DOCTYPE svg PUBLIC "-//W3C//DTD SVG 20010904//EN"
 "http://www.w3.org/TR/2001/REC-SVG-20010904/DTD/svg10.dtd">
<svg version="1.0" xmlns="http://www.w3.org/2000/svg"
 width="720.000000pt" height="720.000000pt" viewBox="0 0 720.000000 720.000000"
 preserveAspectRatio="xMidYMid meet">
<metadata>
Created by potrace 1.14, written by Peter Selinger 2001-2017
</metadata>
<g transform="translate(0.000000,720.000000) scale(0.100000,-0.100000)"
fill="#000000" stroke="none">
<path d="M11 6131 c-7 -13 -11 -192 -11 -535 0 -435 2 -517 14 -529 13 -12
130 -14 803 -15 769 0 789 -1 833 -21 47 -21 86 -57 160 -151 24 -30 51 -63
60 -72 8 -9 20 -23 25 -30 20 -26 130 -163 135 -168 3 -3 22 -26 43 -52 21
-26 43 -53 50 -60 7 -7 50 -60 96 -118 47 -58 86 -107 89 -110 2 -3 15 9 29
25 14 17 44 52 67 78 22 27 45 55 49 63 4 8 18 24 30 37 12 13 36 40 52 62 17
21 46 58 65 80 19 23 51 61 70 85 48 59 324 396 365 445 l33 40 -41 50 c-23
27 -48 56 -55 63 -7 8 -25 30 -40 50 -31 42 -58 75 -87 107 -11 13 -49 60 -85
105 -74 94 -202 226 -275 285 -28 22 -52 42 -55 45 -3 3 -14 11 -25 17 -11 7
-57 35 -102 63 -45 28 -97 56 -115 62 -18 6 -38 15 -44 19 -13 11 -158 57
-199 65 -16 2 -37 7 -45 9 -8 2 -28 8 -45 12 -16 4 -436 9 -932 10 -890 4
-902 4 -912 -16z"/>
<path d="M5395 6140 c-22 -4 -56 -10 -75 -13 -53 -7 -86 -16 -184 -48 -254
-85 -485 -255 -681 -503 -38 -47 -72 -86 -77 -86 -4 0 -8 -5 -8 -10 0 -6 -24
-39 -52 -73 -29 -35 -68 -81 -86 -104 -36 -45 -65 -80 -83 -101 -6 -7 -85
-104 -176 -215 -196 -241 -225 -276 -238 -291 -5 -6 -22 -27 -37 -48 -15 -20
-34 -42 -41 -50 -7 -7 -62 -74 -122 -148 -60 -74 -112 -137 -115 -140 -4 -4
-72 -87 -147 -180 -42 -51 -221 -271 -245 -300 -16 -19 -33 -41 -39 -47 -12
-16 -289 -353 -333 -408 -19 -22 -69 -83 -112 -136 -44 -52 -92 -112 -109
-133 -16 -21 -37 -47 -47 -58 -9 -10 -31 -38 -50 -60 -18 -23 -42 -52 -53 -64
-11 -12 -29 -35 -40 -50 -11 -15 -25 -32 -30 -38 -6 -6 -30 -36 -55 -66 -25
-30 -47 -57 -50 -60 -3 -3 -43 -52 -90 -110 -80 -99 -94 -116 -130 -160 -8
-10 -40 -48 -70 -85 -82 -101 -111 -130 -155 -156 l-40 -24 -800 -3 c-525 -2
-803 -6 -810 -13 -15 -15 -14 -1064 2 -1080 16 -16 1760 -17 1787 -1 4 2 25 6
45 8 20 2 47 6 61 9 14 3 36 8 50 11 14 3 34 8 45 11 11 4 25 8 30 9 83 18
356 159 395 203 3 3 28 24 55 45 71 56 197 187 285 295 41 51 85 105 97 119
313 383 595 727 618 756 17 21 39 48 50 60 12 13 33 37 47 56 l26 33 18 -29
c11 -16 26 -36 34 -44 8 -9 31 -35 50 -59 19 -23 43 -53 54 -64 10 -12 30 -38
45 -57 14 -19 32 -41 38 -48 7 -7 61 -72 120 -145 59 -73 113 -138 120 -145 8
-8 26 -30 41 -50 15 -21 29 -39 32 -42 3 -3 50 -59 104 -125 54 -66 110 -134
124 -151 15 -17 34 -40 42 -50 103 -131 238 -272 315 -329 22 -16 42 -32 45
-35 3 -3 30 -21 60 -40 30 -19 57 -37 60 -40 11 -12 186 -90 202 -90 9 0 19
-4 22 -9 3 -4 20 -12 38 -16 18 -4 35 -8 38 -9 46 -15 150 -34 220 -42 70 -7
1724 -7 1749 1 l21 6 0 533 c0 400 -3 535 -12 544 -9 9 -198 12 -787 12 -530
0 -789 4 -816 11 -53 14 -94 47 -156 122 -28 34 -61 73 -73 87 -11 14 -59 73
-106 130 -46 58 -87 107 -90 110 -4 3 -24 28 -46 55 -22 28 -47 59 -56 70 -9
11 -54 65 -98 120 -45 55 -95 116 -111 135 -16 19 -43 53 -61 75 -18 22 -41
49 -50 60 -9 11 -33 40 -53 65 -71 87 -110 135 -160 195 -28 33 -58 70 -66 83
-9 12 -32 40 -51 60 -46 49 -53 73 -30 98 9 10 40 46 67 79 28 33 55 65 60 71
6 7 24 29 40 49 17 21 67 83 113 139 93 113 130 157 166 201 134 164 200 243
226 274 8 9 27 33 42 53 15 20 33 42 41 50 7 7 30 35 52 63 57 70 68 84 111
136 22 25 53 63 71 85 75 92 90 109 124 142 68 65 35 63 894 64 452 0 787 4
798 10 16 8 17 44 17 542 0 481 -2 534 -16 540 -24 9 -1742 5 -1789 -4z"/>
</g>
</svg>
