<?xml version="1.0" standalone="no"?>
<!DOCTYPE svg PUBLIC "-//W3C//DTD SVG 20010904//EN"
 "http://www.w3.org/TR/2001/REC-SVG-20010904/DTD/svg10.dtd">
<svg version="1.0" xmlns="http://www.w3.org/2000/svg"
 width="960.000000pt" height="960.000000pt" viewBox="0 0 960.000000 960.000000"
 preserveAspectRatio="xMidYMid meet">
<metadata>
Created by potrace 1.14, written by Peter Selinger 2001-2017
</metadata>
<g transform="translate(0.000000,960.000000) scale(0.100000,-0.100000)"
fill="#000000" stroke="none">
<path d="M4470 9589 c-834 -56 -1650 -338 -2360 -814 -441 -297 -870 -712
-1193 -1155 -471 -647 -776 -1413 -877 -2203 -149 -1169 126 -2325 785 -3307
297 -441 712 -870 1155 -1193 647 -471 1413 -776 2203 -877 1169 -149 2325
126 3307 785 441 297 870 712 1193 1155 471 647 776 1413 877 2203 149 1169
-126 2325 -785 3307 -353 525 -862 1019 -1400 1360 -871 551 -1879 808 -2905
739z m-1115 -2608 c33 -8 67 -16 75 -18 8 -2 15 -4 15 -3 0 5 150 -56 196 -80
126 -65 221 -139 335 -260 57 -60 363 -432 364 -440 0 -7 -625 -771 -632 -773
-3 -1 -119 138 -259 308 -207 253 -262 314 -299 333 l-44 22 -671 0 c-509 0
-674 3 -683 12 -9 9 -12 124 -12 455 0 410 1 443 18 453 27 16 1519 8 1597 -9z
m4493 7 c18 -18 17 -891 -1 -907 -9 -7 -219 -11 -694 -13 l-681 -3 -40 -30
c-30 -22 -954 -1131 -987 -1184 -6 -11 898 -1118 961 -1178 32 -30 58 -44 95
-52 33 -7 271 -11 698 -11 582 0 649 -2 655 -16 3 -9 6 -213 6 -454 0 -367 -2
-439 -14 -449 -11 -9 -198 -11 -773 -8 -727 4 -762 5 -844 24 -190 47 -349
129 -501 259 -73 62 -371 416 -908 1077 -15 17 -40 -11 -415 -468 -219 -268
-426 -514 -459 -548 -188 -187 -436 -308 -689 -336 -102 -12 -1463 -16 -1491
-5 -14 5 -16 56 -16 465 l0 459 653 0 c358 1 671 5 695 9 24 5 59 20 78 33 19
14 566 675 1215 1469 650 794 1213 1477 1252 1518 187 192 442 322 687 350
124 14 1504 13 1518 -1z"/>
</g>
</svg>
